<svg xmlns="http://www.w3.org/2000/svg" width="3840" height="2160"><path d="M2069,1169L2098,1483L2298,1189Z" fill="rgb(40,47,76)" stroke="rgb(40,47,76)" stroke-width="1.51"/><path d="M2098,1483L2357,1620L2298,1189Z" fill="rgb(52,59,90)" stroke="rgb(52,59,90)" stroke-width="1.51"/><path d="M2069,1169L1796,1234L2098,1483Z" fill="rgb(37,42,71)" stroke="rgb(37,42,71)" stroke-width="1.51"/><path d="M2357,1620L2579,1530L2298,1189Z" fill="rgb(57,66,98)" stroke="rgb(57,66,98)" stroke-width="1.51"/><path d="M2312,2069L2416,1686L2357,1620Z" fill="rgb(75,88,121)" stroke="rgb(75,88,121)" stroke-width="1.51"/><path d="M2416,1686L2579,1530L2357,1620Z" fill="rgb(68,79,112)" stroke="rgb(68,79,112)" stroke-width="1.51"/><path d="M2098,1483L1886,1739L2357,1620Z" fill="rgb(57,67,98)" stroke="rgb(57,67,98)" stroke-width="1.51"/><path d="M1796,1234L1886,1739L2098,1483Z" fill="rgb(45,52,81)" stroke="rgb(45,52,81)" stroke-width="1.51"/><path d="M2579,1530L3125,1046L2298,1189Z" fill="rgb(55,64,94)" stroke="rgb(55,64,94)" stroke-width="1.51"/><path d="M2416,1686L2708,1608L2579,1530Z" fill="rgb(71,83,116)" stroke="rgb(71,83,116)" stroke-width="1.51"/><path d="M2069,1169L1904,764L1796,1234Z" fill="rgb(24,27,55)" stroke="rgb(24,27,55)" stroke-width="1.51"/><path d="M2298,1189L1904,764L2069,1169Z" fill="rgb(29,33,62)" stroke="rgb(29,33,62)" stroke-width="1.51"/><path d="M2502,9L1904,764L2298,1189Z" fill="rgb(40,45,82)" stroke="rgb(40,45,82)" stroke-width="1.51"/><path d="M1904,764L1649,846L1796,1234Z" fill="rgb(28,31,61)" stroke="rgb(28,31,61)" stroke-width="1.51"/><path d="M1796,1234L1437,1769L1886,1739Z" fill="rgb(52,59,93)" stroke="rgb(52,59,93)" stroke-width="1.51"/><path d="M2416,1686L2488,2075L2708,1608Z" fill="rgb(80,94,128)" stroke="rgb(80,94,128)" stroke-width="1.51"/><path d="M1886,1739L2312,2069L2357,1620Z" fill="rgb(70,82,115)" stroke="rgb(70,82,115)" stroke-width="1.51"/><path d="M2312,2069L2488,2075L2416,1686Z" fill="rgb(84,100,134)" stroke="rgb(84,100,134)" stroke-width="1.51"/><path d="M1886,1739L2064,2490L2312,2069Z" fill="rgb(83,98,132)" stroke="rgb(83,98,132)" stroke-width="1.51"/><path d="M1207,1259L1437,1769L1796,1234Z" fill="rgb(46,52,86)" stroke="rgb(46,52,86)" stroke-width="1.51"/><path d="M1649,846L1207,1259L1796,1234Z" fill="rgb(29,33,63)" stroke="rgb(29,33,63)" stroke-width="1.51"/><path d="M2708,1608L3125,1046L2579,1530Z" fill="rgb(67,78,110)" stroke="rgb(67,78,110)" stroke-width="1.51"/><path d="M3632,1731L3125,1046L2708,1608Z" fill="rgb(81,96,130)" stroke="rgb(81,96,130)" stroke-width="1.51"/><path d="M1649,846L1299,760L1207,1259Z" fill="rgb(31,34,69)" stroke="rgb(31,34,69)" stroke-width="1.51"/><path d="M1427,465L1299,760L1649,846Z" fill="rgb(35,38,77)" stroke="rgb(35,38,77)" stroke-width="1.51"/><path d="M1437,1769L1280,1964L1886,1739Z" fill="rgb(67,78,114)" stroke="rgb(67,78,114)" stroke-width="1.51"/><path d="M984,1549L1280,1964L1437,1769Z" fill="rgb(67,77,116)" stroke="rgb(67,77,116)" stroke-width="1.51"/><path d="M1904,764L1427,465L1649,846Z" fill="rgb(33,36,73)" stroke="rgb(33,36,73)" stroke-width="1.51"/><path d="M2171,-204L1427,465L1904,764Z" fill="rgb(37,41,82)" stroke="rgb(37,41,82)" stroke-width="1.51"/><path d="M1207,1259L984,1549L1437,1769Z" fill="rgb(54,62,99)" stroke="rgb(54,62,99)" stroke-width="1.51"/><path d="M1080,891L1029,1154L1207,1259Z" fill="rgb(32,36,72)" stroke="rgb(32,36,72)" stroke-width="1.51"/><path d="M1080,891L1207,1259L1299,760Z" fill="rgb(32,36,73)" stroke="rgb(32,36,73)" stroke-width="1.51"/><path d="M1427,465L1080,891L1299,760Z" fill="rgb(36,41,81)" stroke="rgb(36,41,81)" stroke-width="1.51"/><path d="M1280,1964L2064,2490L1886,1739Z" fill="rgb(78,91,127)" stroke="rgb(78,91,127)" stroke-width="1.51"/><path d="M2312,2069L2064,2490L2488,2075Z" fill="rgb(93,110,146)" stroke="rgb(93,110,146)" stroke-width="1.51"/><path d="M1029,1154L984,1549L1207,1259Z" fill="rgb(45,50,88)" stroke="rgb(45,50,88)" stroke-width="1.51"/><path d="M2488,2075L3189,2077L2708,1608Z" fill="rgb(96,114,149)" stroke="rgb(96,114,149)" stroke-width="1.51"/><path d="M3003,2304L3189,2077L2488,2075Z" fill="rgb(113,135,172)" stroke="rgb(113,135,172)" stroke-width="1.51"/><path d="M2064,2490L3003,2304L2488,2075Z" fill="rgb(101,119,156)" stroke="rgb(101,119,156)" stroke-width="1.51"/><path d="M3125,1046L2502,9L2298,1189Z" fill="rgb(51,58,94)" stroke="rgb(51,58,94)" stroke-width="1.51"/><path d="M3632,1731L3390,830L3125,1046Z" fill="rgb(74,86,120)" stroke="rgb(74,86,120)" stroke-width="1.51"/><path d="M3390,830L2502,9L3125,1046Z" fill="rgb(65,73,114)" stroke="rgb(65,73,114)" stroke-width="1.51"/><path d="M984,1549L909,1933L1280,1964Z" fill="rgb(72,82,124)" stroke="rgb(72,82,124)" stroke-width="1.51"/><path d="M1280,1964L1011,2389L2064,2490Z" fill="rgb(87,101,141)" stroke="rgb(87,101,141)" stroke-width="1.51"/><path d="M779,1939L909,1933L984,1549Z" fill="rgb(73,84,127)" stroke="rgb(73,84,127)" stroke-width="1.51"/><path d="M1029,1154L518,1410L984,1549Z" fill="rgb(49,56,97)" stroke="rgb(49,56,97)" stroke-width="1.51"/><path d="M1080,891L798,958L1029,1154Z" fill="rgb(34,38,76)" stroke="rgb(34,38,76)" stroke-width="1.51"/><path d="M525,878L798,958L388,369Z" fill="rgb(42,47,95)" stroke="rgb(42,47,95)" stroke-width="1.51"/><path d="M3189,2077L3632,1731L2708,1608Z" fill="rgb(102,120,156)" stroke="rgb(102,120,156)" stroke-width="1.51"/><path d="M3903,1920L3632,1731L3189,2077Z" fill="rgb(121,144,183)" stroke="rgb(121,144,183)" stroke-width="1.51"/><path d="M3390,830L3518,611L2502,9Z" fill="rgb(71,81,125)" stroke="rgb(71,81,125)" stroke-width="1.51"/><path d="M4078,1265L3518,611L3390,830Z" fill="rgb(80,93,130)" stroke="rgb(80,93,130)" stroke-width="1.51"/><path d="M2502,9L2171,-204L1904,764Z" fill="rgb(47,52,98)" stroke="rgb(47,52,98)" stroke-width="1.51"/><path d="M388,369L798,958L1080,891Z" fill="rgb(40,45,91)" stroke="rgb(40,45,91)" stroke-width="1.51"/><path d="M2317,-506L2171,-204L2502,9Z" fill="rgb(55,61,111)" stroke="rgb(55,61,111)" stroke-width="1.51"/><path d="M909,1933L1011,2389L1280,1964Z" fill="rgb(88,102,145)" stroke="rgb(88,102,145)" stroke-width="1.51"/><path d="M518,1410L779,1939L984,1549Z" fill="rgb(65,74,117)" stroke="rgb(65,74,117)" stroke-width="1.51"/><path d="M779,1939L1011,2389L909,1933Z" fill="rgb(89,103,148)" stroke="rgb(89,103,148)" stroke-width="1.51"/><path d="M2064,2490L2207,2962L3003,2304Z" fill="rgb(98,116,152)" stroke="rgb(98,116,152)" stroke-width="1.51"/><path d="M1766,3111L2207,2962L2064,2490Z" fill="rgb(84,99,134)" stroke="rgb(84,99,134)" stroke-width="1.51"/><path d="M798,958L518,1410L1029,1154Z" fill="rgb(39,44,84)" stroke="rgb(39,44,84)" stroke-width="1.51"/><path d="M3518,611L2847,-201L2502,9Z" fill="rgb(72,82,131)" stroke="rgb(72,82,131)" stroke-width="1.51"/><path d="M798,958L475,948L518,1410Z" fill="rgb(38,42,83)" stroke="rgb(38,42,83)" stroke-width="1.51"/><path d="M388,369L1080,891L1427,465Z" fill="rgb(42,46,92)" stroke="rgb(42,46,92)" stroke-width="1.51"/><path d="M525,878L475,948L798,958Z" fill="rgb(39,43,87)" stroke="rgb(39,43,87)" stroke-width="1.51"/><path d="M2171,-204L1602,-371L1427,465Z" fill="rgb(44,49,98)" stroke="rgb(44,49,98)" stroke-width="1.51"/><path d="M2317,-506L1602,-371L2171,-204Z" fill="rgb(45,51,98)" stroke="rgb(45,51,98)" stroke-width="1.51"/><path d="M3518,611L3473,35L2847,-201Z" fill="rgb(83,94,144)" stroke="rgb(83,94,144)" stroke-width="1.51"/><path d="M3873,34L3473,35L3518,611Z" fill="rgb(92,106,156)" stroke="rgb(92,106,156)" stroke-width="1.51"/><path d="M2902,-742L2317,-506L2847,-201Z" fill="rgb(67,75,126)" stroke="rgb(67,75,126)" stroke-width="1.51"/><path d="M2847,-201L2317,-506L2502,9Z" fill="rgb(62,70,120)" stroke="rgb(62,70,120)" stroke-width="1.51"/><path d="M3632,1731L4078,1265L3390,830Z" fill="rgb(88,104,139)" stroke="rgb(88,104,139)" stroke-width="1.51"/><path d="M4099,2630L3903,1920L3189,2077Z" fill="rgb(142,170,210)" stroke="rgb(142,170,210)" stroke-width="1.51"/><path d="M4099,1970L3903,1920L4099,2630Z" fill="rgb(146,175,215)" stroke="rgb(146,175,215)" stroke-width="1.51"/><path d="M1146,2894L1766,3111L2064,2490Z" fill="rgb(85,99,136)" stroke="rgb(85,99,136)" stroke-width="1.51"/><path d="M1011,2389L1146,2894L2064,2490Z" fill="rgb(87,102,142)" stroke="rgb(87,102,142)" stroke-width="1.51"/><path d="M186,2259L1146,2894L1011,2389Z" fill="rgb(95,110,157)" stroke="rgb(95,110,157)" stroke-width="1.51"/><path d="M1177,3016L1146,2894L220,3870Z" fill="rgb(94,109,155)" stroke="rgb(94,109,155)" stroke-width="1.51"/><path d="M4204,1721L4078,1265L3632,1731Z" fill="rgb(110,131,168)" stroke="rgb(110,131,168)" stroke-width="1.51"/><path d="M1766,3111L1878,3260L2207,2962Z" fill="rgb(83,97,131)" stroke="rgb(83,97,131)" stroke-width="1.51"/><path d="M4099,2630L3189,2077L3003,2304Z" fill="rgb(132,157,196)" stroke="rgb(132,157,196)" stroke-width="1.51"/><path d="M1177,3016L1878,3260L1766,3111Z" fill="rgb(85,99,137)" stroke="rgb(85,99,137)" stroke-width="1.51"/><path d="M1146,2894L1177,3016L1766,3111Z" fill="rgb(88,102,143)" stroke="rgb(88,102,143)" stroke-width="1.51"/><path d="M186,2259L1011,2389L779,1939Z" fill="rgb(97,111,160)" stroke="rgb(97,111,160)" stroke-width="1.51"/><path d="M518,1410L254,1779L779,1939Z" fill="rgb(72,81,128)" stroke="rgb(72,81,128)" stroke-width="1.51"/><path d="M125,1259L254,1779L518,1410Z" fill="rgb(61,69,117)" stroke="rgb(61,69,117)" stroke-width="1.51"/><path d="M475,948L125,1259L518,1410Z" fill="rgb(46,51,95)" stroke="rgb(46,51,95)" stroke-width="1.51"/><path d="M525,878L124,772L475,948Z" fill="rgb(42,47,94)" stroke="rgb(42,47,94)" stroke-width="1.51"/><path d="M911,-492L388,369L1427,465Z" fill="rgb(50,55,112)" stroke="rgb(50,55,112)" stroke-width="1.51"/><path d="M3903,1920L4204,1721L3632,1731Z" fill="rgb(123,147,185)" stroke="rgb(123,147,185)" stroke-width="1.51"/><path d="M3294,3190L3003,2304L2207,2962Z" fill="rgb(112,132,169)" stroke="rgb(112,132,169)" stroke-width="1.51"/><path d="M70,849L125,1259L475,948Z" fill="rgb(41,46,91)" stroke="rgb(41,46,91)" stroke-width="1.51"/><path d="M254,1779L186,2259L779,1939Z" fill="rgb(89,103,152)" stroke="rgb(89,103,152)" stroke-width="1.51"/><path d="M125,1259L173,1795L254,1779Z" fill="rgb(70,79,129)" stroke="rgb(70,79,129)" stroke-width="1.51"/><path d="M4099,1970L4204,1721L3903,1920Z" fill="rgb(128,153,191)" stroke="rgb(128,153,191)" stroke-width="1.51"/><path d="M388,369L124,772L525,878Z" fill="rgb(45,51,102)" stroke="rgb(45,51,102)" stroke-width="1.51"/><path d="M3674,-361L2902,-742L2847,-201Z" fill="rgb(81,92,145)" stroke="rgb(81,92,145)" stroke-width="1.51"/><path d="M4078,1265L3873,34L3518,611Z" fill="rgb(91,105,147)" stroke="rgb(91,105,147)" stroke-width="1.51"/><path d="M3902,-23L3873,34L4810,1255Z" fill="rgb(95,110,157)" stroke="rgb(95,110,157)" stroke-width="1.51"/><path d="M-85,156L70,849L124,772Z" fill="rgb(50,56,112)" stroke="rgb(50,56,112)" stroke-width="1.51"/><path d="M124,772L70,849L475,948Z" fill="rgb(44,49,98)" stroke="rgb(44,49,98)" stroke-width="1.51"/><path d="M-496,2490L186,2259L173,1795Z" fill="rgb(104,120,175)" stroke="rgb(104,120,175)" stroke-width="1.51"/><path d="M2773,3675L3294,3190L2207,2962Z" fill="rgb(109,129,166)" stroke="rgb(109,129,166)" stroke-width="1.51"/><path d="M3674,-361L2847,-201L3473,35Z" fill="rgb(87,99,153)" stroke="rgb(87,99,153)" stroke-width="1.51"/><path d="M946,-532L911,-492L1602,-371Z" fill="rgb(49,55,111)" stroke="rgb(49,55,111)" stroke-width="1.51"/><path d="M3873,34L3879,-161L3473,35Z" fill="rgb(101,116,171)" stroke="rgb(101,116,171)" stroke-width="1.51"/><path d="M4135,-357L3902,-23L4810,1255Z" fill="rgb(98,113,163)" stroke="rgb(98,113,163)" stroke-width="1.51"/><path d="M173,1795L186,2259L254,1779Z" fill="rgb(89,101,154)" stroke="rgb(89,101,154)" stroke-width="1.51"/><path d="M-111,1416L173,1795L125,1259Z" fill="rgb(64,73,122)" stroke="rgb(64,73,122)" stroke-width="1.51"/><path d="M1602,-371L911,-492L1427,465Z" fill="rgb(48,53,107)" stroke="rgb(48,53,107)" stroke-width="1.51"/><path d="M388,369L-85,156L124,772Z" fill="rgb(52,58,116)" stroke="rgb(52,58,116)" stroke-width="1.51"/><path d="M946,-532L1602,-371L1033,-630Z" fill="rgb(49,55,110)" stroke="rgb(49,55,110)" stroke-width="1.51"/><path d="M1033,-630L1602,-371L2035,-955Z" fill="rgb(46,51,102)" stroke="rgb(46,51,102)" stroke-width="1.51"/><path d="M3879,-161L3674,-361L3473,35Z" fill="rgb(99,113,168)" stroke="rgb(99,113,168)" stroke-width="1.51"/><path d="M2035,-955L1602,-371L2317,-506Z" fill="rgb(44,49,97)" stroke="rgb(44,49,97)" stroke-width="1.51"/><path d="M3902,-23L3879,-161L3873,34Z" fill="rgb(104,120,175)" stroke="rgb(104,120,175)" stroke-width="1.51"/><path d="M4135,-357L3879,-161L3902,-23Z" fill="rgb(104,120,175)" stroke="rgb(104,120,175)" stroke-width="1.51"/><path d="M2902,-742L2035,-955L2317,-506Z" fill="rgb(58,65,114)" stroke="rgb(58,65,114)" stroke-width="1.51"/><path d="M70,849L-111,1416L125,1259Z" fill="rgb(47,52,100)" stroke="rgb(47,52,100)" stroke-width="1.51"/><path d="M4099,1970L4698,2202L4204,1721Z" fill="rgb(134,160,199)" stroke="rgb(134,160,199)" stroke-width="1.51"/><path d="M3294,3190L4099,2630L3003,2304Z" fill="rgb(133,159,198)" stroke="rgb(133,159,198)" stroke-width="1.51"/><path d="M425,-1097L911,-492L946,-532Z" fill="rgb(53,59,120)" stroke="rgb(53,59,120)" stroke-width="1.51"/><path d="M425,-1097L364,-283L911,-492Z" fill="rgb(55,61,124)" stroke="rgb(55,61,124)" stroke-width="1.51"/><path d="M911,-492L364,-283L388,369Z" fill="rgb(55,62,124)" stroke="rgb(55,62,124)" stroke-width="1.51"/><path d="M-1165,1046L-791,1765L-111,1416Z" fill="rgb(60,68,118)" stroke="rgb(60,68,118)" stroke-width="1.51"/><path d="M1378,-1436L943,-1142L1033,-630Z" fill="rgb(50,55,112)" stroke="rgb(50,55,112)" stroke-width="1.51"/><path d="M2902,-742L2055,-1105L2035,-955Z" fill="rgb(55,61,111)" stroke="rgb(55,61,111)" stroke-width="1.51"/><path d="M4163,3168L4330,2801L4099,2630Z" fill="rgb(146,175,215)" stroke="rgb(146,175,215)" stroke-width="1.51"/><path d="M1878,3260L2773,3675L2207,2962Z" fill="rgb(93,110,146)" stroke="rgb(93,110,146)" stroke-width="1.51"/><path d="M131,4396L2773,3675L1878,3260Z" fill="rgb(85,100,137)" stroke="rgb(85,100,137)" stroke-width="1.51"/><path d="M2902,-742L2744,-1644L2055,-1105Z" fill="rgb(62,70,120)" stroke="rgb(62,70,120)" stroke-width="1.51"/><path d="M3674,-361L3151,-909L2902,-742Z" fill="rgb(84,96,149)" stroke="rgb(84,96,149)" stroke-width="1.51"/><path d="M3993,-809L3151,-909L3674,-361Z" fill="rgb(96,110,165)" stroke="rgb(96,110,165)" stroke-width="1.51"/><path d="M364,-283L-40,110L388,369Z" fill="rgb(57,64,129)" stroke="rgb(57,64,129)" stroke-width="1.51"/><path d="M-40,110L-85,156L388,369Z" fill="rgb(56,63,126)" stroke="rgb(56,63,126)" stroke-width="1.51"/><path d="M3879,-161L4135,-357L3674,-361Z" fill="rgb(104,120,175)" stroke="rgb(104,120,175)" stroke-width="1.51"/><path d="M4810,1255L3873,34L4078,1265Z" fill="rgb(86,101,139)" stroke="rgb(86,101,139)" stroke-width="1.51"/><path d="M4099,2630L4698,2202L4099,1970Z" fill="rgb(146,175,215)" stroke="rgb(146,175,215)" stroke-width="1.51"/><path d="M4204,1721L4810,1255L4078,1265Z" fill="rgb(101,119,156)" stroke="rgb(101,119,156)" stroke-width="1.51"/><path d="M4163,3168L4099,2630L3294,3190Z" fill="rgb(146,175,215)" stroke="rgb(146,175,215)" stroke-width="1.51"/><path d="M4983,1643L4810,1255L4204,1721Z" fill="rgb(108,129,165)" stroke="rgb(108,129,165)" stroke-width="1.51"/><path d="M4330,2801L4698,2202L4099,2630Z" fill="rgb(146,175,215)" stroke="rgb(146,175,215)" stroke-width="1.51"/><path d="M4330,2801L4561,2844L4698,2202Z" fill="rgb(146,175,215)" stroke="rgb(146,175,215)" stroke-width="1.51"/><path d="M2773,3675L4163,3168L3294,3190Z" fill="rgb(131,156,195)" stroke="rgb(131,156,195)" stroke-width="1.51"/><path d="M364,-283L-227,-679L-40,110Z" fill="rgb(61,67,136)" stroke="rgb(61,67,136)" stroke-width="1.51"/><path d="M-40,110L-393,-682L-85,156Z" fill="rgb(61,68,137)" stroke="rgb(61,68,137)" stroke-width="1.51"/><path d="M1033,-630L425,-1097L946,-532Z" fill="rgb(53,59,119)" stroke="rgb(53,59,119)" stroke-width="1.51"/><path d="M1378,-1436L1033,-630L2035,-955Z" fill="rgb(46,52,104)" stroke="rgb(46,52,104)" stroke-width="1.51"/><path d="M4135,-357L3993,-809L3674,-361Z" fill="rgb(104,120,175)" stroke="rgb(104,120,175)" stroke-width="1.51"/><path d="M2744,-1644L1378,-1436L2055,-1105Z" fill="rgb(46,52,99)" stroke="rgb(46,52,99)" stroke-width="1.51"/><path d="M4692,-768L3993,-809L4135,-357Z" fill="rgb(104,120,175)" stroke="rgb(104,120,175)" stroke-width="1.51"/><path d="M5702,-288L4692,-768L4135,-357Z" fill="rgb(104,120,175)" stroke="rgb(104,120,175)" stroke-width="1.51"/><path d="M4698,2202L4983,1643L4204,1721Z" fill="rgb(127,152,190)" stroke="rgb(127,152,190)" stroke-width="1.51"/><path d="M5308,1526L5069,1555L4983,1643Z" fill="rgb(110,131,168)" stroke="rgb(110,131,168)" stroke-width="1.51"/><path d="M4163,3168L4561,2844L4330,2801Z" fill="rgb(146,175,215)" stroke="rgb(146,175,215)" stroke-width="1.51"/><path d="M2055,-1105L1378,-1436L2035,-955Z" fill="rgb(43,48,96)" stroke="rgb(43,48,96)" stroke-width="1.51"/><path d="M3056,-1548L2902,-742L3151,-909Z" fill="rgb(78,88,140)" stroke="rgb(78,88,140)" stroke-width="1.51"/><path d="M943,-1142L425,-1097L1033,-630Z" fill="rgb(53,59,119)" stroke="rgb(53,59,119)" stroke-width="1.51"/><path d="M1378,-1436L898,-1286L943,-1142Z" fill="rgb(50,56,113)" stroke="rgb(50,56,113)" stroke-width="1.51"/><path d="M4983,1643L5069,1555L4810,1255Z" fill="rgb(105,124,161)" stroke="rgb(105,124,161)" stroke-width="1.51"/><path d="M5308,1526L4983,1643L5629,1859Z" fill="rgb(116,139,176)" stroke="rgb(116,139,176)" stroke-width="1.51"/><path d="M-791,1765L-496,2490L173,1795Z" fill="rgb(96,109,164)" stroke="rgb(96,109,164)" stroke-width="1.51"/><path d="M186,2259L220,3870L1146,2894Z" fill="rgb(98,113,163)" stroke="rgb(98,113,163)" stroke-width="1.51"/><path d="M1177,3016L220,3870L1878,3260Z" fill="rgb(91,106,149)" stroke="rgb(91,106,149)" stroke-width="1.51"/><path d="M-791,1765L173,1795L-111,1416Z" fill="rgb(75,84,137)" stroke="rgb(75,84,137)" stroke-width="1.51"/><path d="M898,-1286L425,-1097L943,-1142Z" fill="rgb(53,59,120)" stroke="rgb(53,59,120)" stroke-width="1.51"/><path d="M3993,-809L3233,-1467L3151,-909Z" fill="rgb(92,105,158)" stroke="rgb(92,105,158)" stroke-width="1.51"/><path d="M-945,586L70,849L-85,156Z" fill="rgb(51,57,116)" stroke="rgb(51,57,116)" stroke-width="1.51"/><path d="M-945,586L-111,1416L70,849Z" fill="rgb(44,49,99)" stroke="rgb(44,49,99)" stroke-width="1.51"/><path d="M3233,-1467L3056,-1548L3151,-909Z" fill="rgb(81,92,145)" stroke="rgb(81,92,145)" stroke-width="1.51"/><path d="M3056,-1548L2744,-1644L2902,-742Z" fill="rgb(73,82,135)" stroke="rgb(73,82,135)" stroke-width="1.51"/><path d="M425,-1097L-227,-679L364,-283Z" fill="rgb(59,66,132)" stroke="rgb(59,66,132)" stroke-width="1.51"/><path d="M5069,1555L5308,1526L4810,1255Z" fill="rgb(103,122,158)" stroke="rgb(103,122,158)" stroke-width="1.51"/><path d="M5629,1859L4983,1643L4698,2202Z" fill="rgb(130,155,194)" stroke="rgb(130,155,194)" stroke-width="1.51"/><path d="M-885,-29L-945,586L-85,156Z" fill="rgb(57,63,127)" stroke="rgb(57,63,127)" stroke-width="1.51"/><path d="M-362,3516L220,3870L186,2259Z" fill="rgb(104,120,175)" stroke="rgb(104,120,175)" stroke-width="1.51"/><path d="M-227,-679L-393,-682L-40,110Z" fill="rgb(61,68,137)" stroke="rgb(61,68,137)" stroke-width="1.51"/><path d="M-392,-1682L-393,-682L-227,-679Z" fill="rgb(61,68,137)" stroke="rgb(61,68,137)" stroke-width="1.51"/><path d="M3993,-809L4692,-768L3233,-1467Z" fill="rgb(104,120,175)" stroke="rgb(104,120,175)" stroke-width="1.51"/><path d="M5702,-288L4135,-357L4810,1255Z" fill="rgb(100,115,166)" stroke="rgb(100,115,166)" stroke-width="1.51"/><path d="M-945,586L-1137,967L-111,1416Z" fill="rgb(44,48,97)" stroke="rgb(44,48,97)" stroke-width="1.51"/><path d="M-1467,2936L-362,3516L-496,2490Z" fill="rgb(104,120,175)" stroke="rgb(104,120,175)" stroke-width="1.51"/><path d="M-1165,1046L-1137,967L-1920,1201Z" fill="rgb(42,47,94)" stroke="rgb(42,47,94)" stroke-width="1.51"/><path d="M-393,-682L-885,-29L-85,156Z" fill="rgb(61,68,137)" stroke="rgb(61,68,137)" stroke-width="1.51"/><path d="M-1686,1351L-1165,1046L-1920,1201Z" fill="rgb(49,54,103)" stroke="rgb(49,54,103)" stroke-width="1.51"/><path d="M-1137,967L-1165,1046L-111,1416Z" fill="rgb(45,51,98)" stroke="rgb(45,51,98)" stroke-width="1.51"/><path d="M-1467,2936L-496,2490L-791,1765Z" fill="rgb(104,120,175)" stroke="rgb(104,120,175)" stroke-width="1.51"/><path d="M-496,2490L-362,3516L186,2259Z" fill="rgb(104,120,175)" stroke="rgb(104,120,175)" stroke-width="1.51"/><path d="M5308,1526L5702,-288L4810,1255Z" fill="rgb(87,101,140)" stroke="rgb(87,101,140)" stroke-width="1.51"/><path d="M5772,2155L5629,1859L4698,2202Z" fill="rgb(140,168,208)" stroke="rgb(140,168,208)" stroke-width="1.51"/><path d="M-362,3516L131,4396L220,3870Z" fill="rgb(104,120,175)" stroke="rgb(104,120,175)" stroke-width="1.51"/><path d="M220,3870L131,4396L1878,3260Z" fill="rgb(95,110,157)" stroke="rgb(95,110,157)" stroke-width="1.51"/><path d="M4561,2844L5772,2155L4698,2202Z" fill="rgb(146,175,215)" stroke="rgb(146,175,215)" stroke-width="1.51"/><path d="M5629,1859L5702,-288L5308,1526Z" fill="rgb(83,97,132)" stroke="rgb(83,97,132)" stroke-width="1.51"/><path d="M4163,3168L5772,2155L4561,2844Z" fill="rgb(146,175,215)" stroke="rgb(146,175,215)" stroke-width="1.51"/><path d="M-1165,1046L-1686,1351L-791,1765Z" fill="rgb(59,67,116)" stroke="rgb(59,67,116)" stroke-width="1.51"/><path d="M-362,3516L-1467,2936L131,4396Z" fill="rgb(104,120,175)" stroke="rgb(104,120,175)" stroke-width="1.51"/><path d="M-1611,256L-1137,967L-945,586Z" fill="rgb(50,56,113)" stroke="rgb(50,56,113)" stroke-width="1.51"/><path d="M4692,-768L5702,-288L3233,-1467Z" fill="rgb(104,120,175)" stroke="rgb(104,120,175)" stroke-width="1.51"/><path d="M5772,2155L5702,-288L5629,1859Z" fill="rgb(91,107,142)" stroke="rgb(91,107,142)" stroke-width="1.51"/><path d="M-1640,-693L-1611,256L-885,-29Z" fill="rgb(61,68,137)" stroke="rgb(61,68,137)" stroke-width="1.51"/><path d="M425,-1097L-392,-1682L-227,-679Z" fill="rgb(61,68,137)" stroke="rgb(61,68,137)" stroke-width="1.51"/><path d="M898,-1286L641,-2285L425,-1097Z" fill="rgb(54,60,122)" stroke="rgb(54,60,122)" stroke-width="1.51"/><path d="M1378,-1436L641,-2285L898,-1286Z" fill="rgb(51,57,115)" stroke="rgb(51,57,115)" stroke-width="1.51"/><path d="M2744,-1644L641,-2285L1378,-1436Z" fill="rgb(45,51,101)" stroke="rgb(45,51,101)" stroke-width="1.51"/><path d="M-885,-29L-1611,256L-945,586Z" fill="rgb(56,62,126)" stroke="rgb(56,62,126)" stroke-width="1.51"/><path d="M-1640,-693L-885,-29L-393,-682Z" fill="rgb(61,68,137)" stroke="rgb(61,68,137)" stroke-width="1.51"/><path d="M641,-2285L-392,-1682L425,-1097Z" fill="rgb(58,65,132)" stroke="rgb(58,65,132)" stroke-width="1.51"/><path d="M-1686,1351L-1467,2936L-791,1765Z" fill="rgb(96,109,164)" stroke="rgb(96,109,164)" stroke-width="1.51"/><path d="M-444,-2151L-536,-1713L-392,-1682Z" fill="rgb(61,68,137)" stroke="rgb(61,68,137)" stroke-width="1.51"/><path d="M-392,-1682L-536,-1713L-393,-682Z" fill="rgb(61,68,137)" stroke="rgb(61,68,137)" stroke-width="1.51"/><path d="M-1611,256L-1920,1201L-1137,967Z" fill="rgb(47,52,105)" stroke="rgb(47,52,105)" stroke-width="1.51"/><path d="M-1686,1351L-1920,1201L-1467,2936Z" fill="rgb(85,96,150)" stroke="rgb(85,96,150)" stroke-width="1.51"/><path d="M-1611,256L-1640,-693L-1920,1201Z" fill="rgb(56,63,126)" stroke="rgb(56,63,126)" stroke-width="1.51"/><path d="M-1712,-1075L-1640,-693L-393,-682Z" fill="rgb(61,68,137)" stroke="rgb(61,68,137)" stroke-width="1.51"/><path d="M-536,-1713L-1712,-1075L-393,-682Z" fill="rgb(61,68,137)" stroke="rgb(61,68,137)" stroke-width="1.51"/><path d="M641,-2285L-444,-2151L-392,-1682Z" fill="rgb(61,68,137)" stroke="rgb(61,68,137)" stroke-width="1.51"/><path d="M-444,-2151L-1712,-1075L-536,-1713Z" fill="rgb(61,68,137)" stroke="rgb(61,68,137)" stroke-width="1.51"/><path d="M-1640,-693L-1712,-1075L-1920,1201Z" fill="rgb(61,68,137)" stroke="rgb(61,68,137)" stroke-width="1.51"/></svg>